<svg class="toyplot-canvas-Canvas" xmlns:toyplot="http://www.sandia.gov/toyplot" xmlns:xlink="http://www.w3.org/1999/xlink" xmlns="http://www.w3.org/2000/svg" width="800.0px" height="600.0px" viewBox="0 0 800.0 600.0" preserveAspectRatio="xMidYMid meet" style="background-color:#fdf6e3;border-color:#292724;border-style:none;border-width:1.0;fill:rgb(16.1%,15.3%,14.1%);fill-opacity:1.0;font-family:Helvetica;font-size:12px;opacity:1.0;stroke:rgb(16.1%,15.3%,14.1%);stroke-opacity:1.0;stroke-width:1.0" id="te8fdfebf88ac427b8687519b912a7d71"><g class="toyplot-coordinates-Cartesian" id="t1f1da4dafa3a488092dffcbdd043dae5"><clipPath id="td395a3b4c050424d8837ab2a18f885c5"><rect x="40.0" y="40.0" width="720.0" height="520.0" /></clipPath><g clip-path="url(#td395a3b4c050424d8837ab2a18f885c5)"><g class="toytree-mark-Toytree" id="tacb08c545bd0461fb6db4e8b05524dc9"><g class="toytree-Edges" style="stroke:rgb(14.5%,14.5%,14.5%);stroke-opacity:1.0;stroke-linecap:round;stroke-width:2.0;fill:none"><path d="M 202.5 545.5 L 202.5 547.0 L 256.8 547.0" id="168,0" style="" /><path d="M 202.5 545.5 L 202.5 544.0 L 247.6 544.0" id="168,1" style="" /><path d="M 203.3 539.6 L 203.3 541.1 L 258.8 541.1" id="169,2" style="" /><path d="M 203.3 539.6 L 203.3 538.1 L 261.0 538.1" id="169,3" style="" /><path d="M 176.0 532.9 L 176.0 535.2 L 236.9 535.2" id="172,4" style="" /><path d="M 221.5 530.7 L 221.5 532.2 L 264.0 532.2" id="171,5" style="" /><path d="M 221.5 530.7 L 221.5 529.3 L 266.6 529.3" id="171,6" style="" /><path d="M 121.6 521.7 L 121.6 526.3 L 167.1 526.3" id="178,7" style="" /><path d="M 187.1 521.1 L 187.1 523.3 L 216.7 523.3" id="175,8" style="" /><path d="M 237.5 518.9 L 237.5 520.4 L 262.7 520.4" id="174,9" style="" /><path d="M 237.5 518.9 L 237.5 517.4 L 278.0 517.4" id="174,10" style="" /><path d="M 156.0 513.0 L 156.0 514.5 L 206.8 514.5" id="176,11" style="" /><path d="M 156.0 513.0 L 156.0 511.5 L 217.8 511.5" id="176,12" style="" /><path d="M 107.8 506.3 L 107.8 508.5 L 180.8 508.5" id="181,13" style="" /><path d="M 139.0 504.1 L 139.0 505.6 L 183.6 505.6" id="180,14" style="" /><path d="M 139.0 504.1 L 139.0 502.6 L 218.2 502.6" id="180,15" style="" /><path d="M 103.7 495.6 L 103.7 499.7 L 150.3 499.7" id="187,16" style="" /><path d="M 117.8 491.6 L 117.8 496.7 L 141.0 496.7" id="186,17" style="" /><path d="M 136.1 491.2 L 136.1 493.8 L 151.3 493.8" id="184,18" style="" /><path d="M 139.9 488.6 L 139.9 490.8 L 167.3 490.8" id="183,19" style="" /><path d="M 144.5 486.4 L 144.5 487.8 L 161.1 487.8" id="182,20" style="" /><path d="M 144.5 486.4 L 144.5 484.9 L 167.7 484.9" id="182,21" style="" /><path d="M 121.3 486.5 L 121.3 481.9 L 155.5 481.9" id="185,22" style="" /><path d="M 75.6 490.0 L 75.6 479.0 L 128.0 479.0" id="189,23" style="" /><path d="M 123.0 472.9 L 123.0 476.0 L 193.0 476.0" id="194,24" style="" /><path d="M 235.0 469.7 L 235.0 473.0 L 254.4 473.0" id="193,25" style="" /><path d="M 285.7 468.6 L 285.7 470.1 L 312.2 470.1" id="191,26" style="" /><path d="M 285.7 468.6 L 285.7 467.1 L 301.7 467.1" id="191,27" style="" /><path d="M 242.5 466.4 L 242.5 464.2 L 264.4 464.2" id="192,28" style="" /><path d="M 206.2 459.7 L 206.2 461.2 L 223.3 461.2" id="195,29" style="" /><path d="M 206.2 459.7 L 206.2 458.3 L 228.9 458.3" id="195,30" style="" /><path d="M 212.5 453.1 L 212.5 455.3 L 233.0 455.3" id="197,31" style="" /><path d="M 219.7 450.9 L 219.7 452.3 L 246.2 452.3" id="196,32" style="" /><path d="M 219.7 450.9 L 219.7 449.4 L 235.4 449.4" id="196,33" style="" /><path d="M 206.2 444.2 L 206.2 446.4 L 237.0 446.4" id="199,34" style="" /><path d="M 237.7 442.0 L 237.7 443.5 L 254.1 443.5" id="198,35" style="" /><path d="M 237.7 442.0 L 237.7 440.5 L 264.0 440.5" id="198,36" style="" /><path d="M 138.0 433.1 L 138.0 437.6 L 212.9 437.6" id="208,37" style="" /><path d="M 184.6 433.1 L 184.6 434.6 L 259.1 434.6" id="203,38" style="" /><path d="M 184.6 433.1 L 184.6 431.6 L 186.0 431.6" id="203,39" style="" /><path d="M 165.1 427.2 L 165.1 428.7 L 194.4 428.7" id="204,40" style="" /><path d="M 165.1 427.2 L 165.1 425.7 L 195.8 425.7" id="204,41" style="" /><path d="M 162.4 421.3 L 162.4 422.8 L 195.4 422.8" id="205,42" style="" /><path d="M 162.4 421.3 L 162.4 419.8 L 190.7 419.8" id="205,43" style="" /><path d="M 105.2 425.0 L 105.2 416.8 L 336.6 416.8" id="209,44" style="" /><path d="M 191.5 409.4 L 191.5 413.9 L 461.5 413.9" id="223,45" style="" /><path d="M 339.5 404.9 L 339.5 410.9 L 588.6 410.9" id="222,46" style="" /><path d="M 414.1 398.8 L 414.1 408.0 L 614.6 408.0" id="221,47" style="" /><path d="M 533.3 402.8 L 533.3 405.0 L 607.0 405.0" id="212,48" style="" /><path d="M 545.7 400.6 L 545.7 402.1 L 574.5 402.1" id="211,49" style="" /><path d="M 545.7 400.6 L 545.7 399.1 L 591.9 399.1" id="211,50" style="" /><path d="M 530.2 393.9 L 530.2 396.1 L 620.9 396.1" id="214,51" style="" /><path d="M 583.8 391.7 L 583.8 393.2 L 605.0 393.2" id="213,52" style="" /><path d="M 583.8 391.7 L 583.8 390.2 L 606.8 390.2" id="213,53" style="" /><path d="M 629.5 385.0 L 629.5 387.3 L 659.0 387.3" id="217,54" style="" /><path d="M 633.9 382.8 L 633.9 384.3 L 655.8 384.3" id="216,55" style="" /><path d="M 633.9 382.8 L 633.9 381.3 L 655.0 381.3" id="216,56" style="" /><path d="M 519.1 376.9 L 519.1 378.4 L 577.8 378.4" id="218,57" style="" /><path d="M 519.1 376.9 L 519.1 375.4 L 687.1 375.4" id="218,58" style="" /><path d="M 191.7 362.4 L 191.7 372.5 L 296.5 372.5" id="251,59" style="" /><path d="M 231.1 352.3 L 231.1 369.5 L 294.9 369.5" id="250,60" style="" /><path d="M 304.6 365.1 L 304.6 366.6 L 376.9 366.6" id="224,61" style="" /><path d="M 304.6 365.1 L 304.6 363.6 L 322.6 363.6" id="224,62" style="" /><path d="M 308.5 359.2 L 308.5 360.6 L 348.5 360.6" id="225,63" style="" /><path d="M 308.5 359.2 L 308.5 357.7 L 333.7 357.7" id="225,64" style="" /><path d="M 302.1 356.9 L 302.1 354.7 L 325.1 354.7" id="226,65" style="" /><path d="M 289.5 356.4 L 289.5 351.8 L 323.7 351.8" id="228,66" style="" /><path d="M 292.1 346.6 L 292.1 348.8 L 330.0 348.8" id="230,67" style="" /><path d="M 298.0 344.4 L 298.0 345.9 L 329.0 345.9" id="229,68" style="" /><path d="M 298.0 344.4 L 298.0 342.9 L 330.4 342.9" id="229,69" style="" /><path d="M 295.1 338.5 L 295.1 339.9 L 331.7 339.9" id="231,70" style="" /><path d="M 295.1 338.5 L 295.1 337.0 L 321.5 337.0" id="231,71" style="" /><path d="M 288.2 336.2 L 288.2 334.0 L 308.2 334.0" id="232,72" style="" /><path d="M 284.0 328.5 L 284.0 331.1 L 310.7 331.1" id="236,73" style="" /><path d="M 299.6 325.9 L 299.6 328.1 L 319.4 328.1" id="235,74" style="" /><path d="M 304.0 323.7 L 304.0 325.1 L 306.6 325.1" id="234,75" style="" /><path d="M 304.0 323.7 L 304.0 322.2 L 309.3 322.2" id="234,76" style="" /><path d="M 269.7 316.5 L 269.7 319.2 L 309.9 319.2" id="241,77" style="" /><path d="M 280.1 313.7 L 280.1 316.3 L 329.4 316.3" id="240,78" style="" /><path d="M 295.0 311.1 L 295.0 313.3 L 350.1 313.3" id="239,79" style="" /><path d="M 313.8 308.9 L 313.8 310.4 L 321.1 310.4" id="238,80" style="" /><path d="M 313.8 308.9 L 313.8 307.4 L 364.3 307.4" id="238,81" style="" /><path d="M 285.3 301.6 L 285.3 304.4 L 299.9 304.4" id="247,82" style="" /><path d="M 295.3 298.7 L 295.3 301.5 L 315.2 301.5" id="246,83" style="" /><path d="M 304.0 295.9 L 304.0 298.5 L 320.1 298.5" id="245,84" style="" /><path d="M 309.4 293.3 L 309.4 295.6 L 330.2 295.6" id="244,85" style="" /><path d="M 314.5 291.1 L 314.5 292.6 L 344.7 292.6" id="243,86" style="" /><path d="M 314.5 291.1 L 314.5 289.6 L 333.5 289.6" id="243,87" style="" /><path d="M 305.2 285.2 L 305.2 286.7 L 359.5 286.7" id="253,88" style="" /><path d="M 305.2 285.2 L 305.2 283.7 L 368.2 283.7" id="253,89" style="" /><path d="M 457.0 279.3 L 457.0 280.8 L 475.4 280.8" id="254,90" style="" /><path d="M 457.0 279.3 L 457.0 277.8 L 488.8 277.8" id="254,91" style="" /><path d="M 338.0 273.4 L 338.0 274.9 L 382.3 274.9" id="255,92" style="" /><path d="M 338.0 273.4 L 338.0 271.9 L 372.3 271.9" id="255,93" style="" /><path d="M 386.3 267.5 L 386.3 268.9 L 520.9 268.9" id="256,94" style="" /><path d="M 386.3 267.5 L 386.3 266.0 L 467.3 266.0" id="256,95" style="" /><path d="M 383.0 260.3 L 383.0 263.0 L 426.9 263.0" id="262,96" style="" /><path d="M 405.4 257.5 L 405.4 260.1 L 428.3 260.1" id="261,97" style="" /><path d="M 419.3 254.9 L 419.3 257.1 L 441.8 257.1" id="260,98" style="" /><path d="M 428.0 252.7 L 428.0 254.1 L 446.9 254.1" id="259,99" style="" /><path d="M 428.0 252.7 L 428.0 251.2 L 456.3 251.2" id="259,100" style="" /><path d="M 370.1 254.2 L 370.1 248.2 L 491.8 248.2" id="263,101" style="" /><path d="M 394.8 243.8 L 394.8 245.3 L 428.5 245.3" id="264,102" style="" /><path d="M 394.8 243.8 L 394.8 242.3 L 448.3 242.3" id="264,103" style="" /><path d="M 369.5 237.9 L 369.5 239.4 L 402.2 239.4" id="265,104" style="" /><path d="M 369.5 237.9 L 369.5 236.4 L 423.5 236.4" id="265,105" style="" /><path d="M 350.4 230.5 L 350.4 233.4 L 451.4 233.4" id="274,106" style="" /><path d="M 380.6 227.6 L 380.6 230.5 L 450.1 230.5" id="273,107" style="" /><path d="M 408.0 224.7 L 408.0 227.5 L 429.7 227.5" id="272,108" style="" /><path d="M 439.3 221.8 L 439.3 224.6 L 472.8 224.6" id="271,109" style="" /><path d="M 542.9 219.0 L 542.9 221.6 L 617.1 221.6" id="270,110" style="" /><path d="M 605.9 216.4 L 605.9 218.7 L 641.1 218.7" id="269,111" style="" /><path d="M 621.9 214.2 L 621.9 215.7 L 640.3 215.7" id="268,112" style="" /><path d="M 621.9 214.2 L 621.9 212.7 L 660.2 212.7" id="268,113" style="" /><path d="M 311.9 224.4 L 311.9 209.8 L 468.1 209.8" id="276,114" style="" /><path d="M 292.9 215.6 L 292.9 206.8 L 409.1 206.8" id="277,115" style="" /><path d="M 267.0 201.6 L 267.0 203.9 L 412.2 203.9" id="279,116" style="" /><path d="M 345.6 199.4 L 345.6 200.9 L 511.6 200.9" id="278,117" style="" /><path d="M 345.6 199.4 L 345.6 197.9 L 513.9 197.9" id="278,118" style="" /><path d="M 366.1 193.5 L 366.1 195.0 L 439.0 195.0" id="281,119" style="" /><path d="M 366.1 193.5 L 366.1 192.0 L 438.2 192.0" id="281,120" style="" /><path d="M 359.5 187.6 L 359.5 189.1 L 408.9 189.1" id="282,121" style="" /><path d="M 359.5 187.6 L 359.5 186.1 L 418.1 186.1" id="282,122" style="" /><path d="M 312.4 179.4 L 312.4 183.2 L 404.5 183.2" id="288,123" style="" /><path d="M 347.4 175.6 L 347.4 180.2 L 419.4 180.2" id="287,124" style="" /><path d="M 378.7 175.0 L 378.7 177.2 L 431.0 177.2" id="284,125" style="" /><path d="M 406.6 172.8 L 406.6 174.3 L 452.4 174.3" id="283,126" style="" /><path d="M 406.6 172.8 L 406.6 171.3 L 456.3 171.3" id="283,127" style="" /><path d="M 390.5 166.9 L 390.5 168.4 L 424.3 168.4" id="285,128" style="" /><path d="M 390.5 166.9 L 390.5 165.4 L 428.1 165.4" id="285,129" style="" /><path d="M 253.1 161.0 L 253.1 162.4 L 343.5 162.4" id="293,130" style="" /><path d="M 253.1 161.0 L 253.1 159.5 L 393.8 159.5" id="293,131" style="" /><path d="M 156.3 143.5 L 156.3 156.5 L 373.9 156.5" id="310,132" style="" /><path d="M 314.2 151.4 L 314.2 153.6 L 510.7 153.6" id="297,133" style="" /><path d="M 344.9 149.1 L 344.9 150.6 L 491.3 150.6" id="296,134" style="" /><path d="M 344.9 149.1 L 344.9 147.7 L 515.7 147.7" id="296,135" style="" /><path d="M 306.8 138.7 L 306.8 144.7 L 471.4 144.7" id="305,136" style="" /><path d="M 365.5 140.3 L 365.5 141.7 L 451.3 141.7" id="298,137" style="" /><path d="M 365.5 140.3 L 365.5 138.8 L 449.8 138.8" id="298,138" style="" /><path d="M 536.2 133.6 L 536.2 135.8 L 569.1 135.8" id="300,139" style="" /><path d="M 548.6 131.4 L 548.6 132.9 L 587.5 132.9" id="299,140" style="" /><path d="M 548.6 131.4 L 548.6 129.9 L 578.5 129.9" id="299,141" style="" /><path d="M 471.3 125.5 L 471.3 127.0 L 544.5 127.0" id="301,142" style="" /><path d="M 471.3 125.5 L 471.3 124.0 L 579.7 124.0" id="301,143" style="" /><path d="M 377.5 125.3 L 377.5 121.0 L 484.3 121.0" id="303,144" style="" /><path d="M 232.8 115.9 L 232.8 118.1 L 337.7 118.1" id="308,145" style="" /><path d="M 301.8 113.6 L 301.8 115.1 L 408.2 115.1" id="307,146" style="" /><path d="M 301.8 113.6 L 301.8 112.2 L 455.7 112.2" id="307,147" style="" /><path d="M 63.3 90.5 L 63.3 109.2 L 181.3 109.2" id="332,148" style="" /><path d="M 76.6 104.0 L 76.6 106.2 L 118.5 106.2" id="315,149" style="" /><path d="M 87.4 101.8 L 87.4 103.3 L 114.6 103.3" id="314,150" style="" /><path d="M 87.4 101.8 L 87.4 100.3 L 168.6 100.3" id="314,151" style="" /><path d="M 126.8 95.2 L 126.8 97.4 L 148.2 97.4" id="317,152" style="" /><path d="M 132.9 92.9 L 132.9 94.4 L 151.8 94.4" id="316,153" style="" /><path d="M 132.9 92.9 L 132.9 91.5 L 154.0 91.5" id="316,154" style="" /><path d="M 103.5 82.6 L 103.5 88.5 L 163.3 88.5" id="326,155" style="" /><path d="M 170.5 83.3 L 170.5 85.5 L 312.2 85.5" id="319,156" style="" /><path d="M 204.1 81.1 L 204.1 82.6 L 261.7 82.6" id="318,157" style="" /><path d="M 204.1 81.1 L 204.1 79.6 L 248.0 79.6" id="318,158" style="" /><path d="M 158.9 74.4 L 158.9 76.7 L 180.3 76.7" id="321,159" style="" /><path d="M 163.7 72.2 L 163.7 73.7 L 190.0 73.7" id="320,160" style="" /><path d="M 163.7 72.2 L 163.7 70.7 L 191.1 70.7" id="320,161" style="" /><path d="M 170.4 65.6 L 170.4 67.8 L 197.8 67.8" id="323,162" style="" /><path d="M 180.3 63.4 L 180.3 64.8 L 211.4 64.8" id="322,163" style="" /><path d="M 180.3 63.4 L 180.3 61.9 L 206.4 61.9" id="322,164" style="" /><path d="M 81.6 73.9 L 81.6 58.9 L 153.8 58.9" id="328,165" style="" /><path d="M 98.5 54.5 L 98.5 56.0 L 132.2 56.0" id="330,166" style="" /><path d="M 98.5 54.5 L 98.5 53.0 L 131.0 53.0" id="330,167" style="" /><path d="M 192.7 542.6 L 192.7 545.5 L 202.5 545.5" id="170,168" style="" /><path d="M 192.7 542.6 L 192.7 539.6 L 203.3 539.6" id="170,169" style="" /><path d="M 150.9 537.8 L 150.9 542.6 L 192.7 542.6" id="173,170" style="" /><path d="M 176.0 532.9 L 176.0 530.7 L 221.5 530.7" id="172,171" style="" /><path d="M 150.9 537.8 L 150.9 532.9 L 176.0 532.9" id="173,172" style="" /><path d="M 103.3 529.7 L 103.3 537.8 L 150.9 537.8" id="179,173" style="" /><path d="M 187.1 521.1 L 187.1 518.9 L 237.5 518.9" id="175,174" style="" /><path d="M 141.0 517.0 L 141.0 521.1 L 187.1 521.1" id="177,175" style="" /><path d="M 141.0 517.0 L 141.0 513.0 L 156.0 513.0" id="177,176" style="" /><path d="M 121.6 521.7 L 121.6 517.0 L 141.0 517.0" id="178,177" style="" /><path d="M 103.3 529.7 L 103.3 521.7 L 121.6 521.7" id="179,178" style="" /><path d="M 62.0 509.8 L 62.0 529.7 L 103.3 529.7" id="190,179" style="" /><path d="M 107.8 506.3 L 107.8 504.1 L 139.0 504.1" id="181,180" style="" /><path d="M 82.9 501.0 L 82.9 506.3 L 107.8 506.3" id="188,181" style="" /><path d="M 139.9 488.6 L 139.9 486.4 L 144.5 486.4" id="183,182" style="" /><path d="M 136.1 491.2 L 136.1 488.6 L 139.9 488.6" id="184,183" style="" /><path d="M 121.3 486.5 L 121.3 491.2 L 136.1 491.2" id="185,184" style="" /><path d="M 117.8 491.6 L 117.8 486.5 L 121.3 486.5" id="186,185" style="" /><path d="M 103.7 495.6 L 103.7 491.6 L 117.8 491.6" id="187,186" style="" /><path d="M 82.9 501.0 L 82.9 495.6 L 103.7 495.6" id="188,187" style="" /><path d="M 75.6 490.0 L 75.6 501.0 L 82.9 501.0" id="189,188" style="" /><path d="M 62.0 509.8 L 62.0 490.0 L 75.6 490.0" id="190,189" style="" /><path d="M 51.0 322.4 L 51.0 509.8 L 62.0 509.8" id="333,190" style="" /><path d="M 242.5 466.4 L 242.5 468.6 L 285.7 468.6" id="192,191" style="" /><path d="M 235.0 469.7 L 235.0 466.4 L 242.5 466.4" id="193,192" style="" /><path d="M 123.0 472.9 L 123.0 469.7 L 235.0 469.7" id="194,193" style="" /><path d="M 97.1 463.5 L 97.1 472.9 L 123.0 472.9" id="202,194" style="" /><path d="M 114.3 454.2 L 114.3 459.7 L 206.2 459.7" id="201,195" style="" /><path d="M 212.5 453.1 L 212.5 450.9 L 219.7 450.9" id="197,196" style="" /><path d="M 189.4 448.6 L 189.4 453.1 L 212.5 453.1" id="200,197" style="" /><path d="M 206.2 444.2 L 206.2 442.0 L 237.7 442.0" id="199,198" style="" /><path d="M 189.4 448.6 L 189.4 444.2 L 206.2 444.2" id="200,199" style="" /><path d="M 114.3 454.2 L 114.3 448.6 L 189.4 448.6" id="201,200" style="" /><path d="M 97.1 463.5 L 97.1 454.2 L 114.3 454.2" id="202,201" style="" /><path d="M 83.6 444.3 L 83.6 463.5 L 97.1 463.5" id="210,202" style="" /><path d="M 142.8 428.7 L 142.8 433.1 L 184.6 433.1" id="207,203" style="" /><path d="M 153.1 424.2 L 153.1 427.2 L 165.1 427.2" id="206,204" style="" /><path d="M 153.1 424.2 L 153.1 421.3 L 162.4 421.3" id="206,205" style="" /><path d="M 142.8 428.7 L 142.8 424.2 L 153.1 424.2" id="207,206" style="" /><path d="M 138.0 433.1 L 138.0 428.7 L 142.8 428.7" id="208,207" style="" /><path d="M 105.2 425.0 L 105.2 433.1 L 138.0 433.1" id="209,208" style="" /><path d="M 83.6 444.3 L 83.6 425.0 L 105.2 425.0" id="210,209" style="" /><path d="M 61.1 366.8 L 61.1 444.3 L 83.6 444.3" id="313,210" style="" /><path d="M 533.3 402.8 L 533.3 400.6 L 545.7 400.6" id="212,211" style="" /><path d="M 496.8 398.4 L 496.8 402.8 L 533.3 402.8" id="215,212" style="" /><path d="M 530.2 393.9 L 530.2 391.7 L 583.8 391.7" id="214,213" style="" /><path d="M 496.8 398.4 L 496.8 393.9 L 530.2 393.9" id="215,214" style="" /><path d="M 461.2 389.7 L 461.2 398.4 L 496.8 398.4" id="220,215" style="" /><path d="M 629.5 385.0 L 629.5 382.8 L 633.9 382.8" id="217,216" style="" /><path d="M 497.9 381.0 L 497.9 385.0 L 629.5 385.0" id="219,217" style="" /><path d="M 497.9 381.0 L 497.9 376.9 L 519.1 376.9" id="219,218" style="" /><path d="M 461.2 389.7 L 461.2 381.0 L 497.9 381.0" id="220,219" style="" /><path d="M 414.1 398.8 L 414.1 389.7 L 461.2 389.7" id="221,220" style="" /><path d="M 339.5 404.9 L 339.5 398.8 L 414.1 398.8" id="222,221" style="" /><path d="M 191.5 409.4 L 191.5 404.9 L 339.5 404.9" id="223,222" style="" /><path d="M 141.0 385.9 L 141.0 409.4 L 191.5 409.4" id="252,223" style="" /><path d="M 293.4 361.0 L 293.4 365.1 L 304.6 365.1" id="227,224" style="" /><path d="M 302.1 356.9 L 302.1 359.2 L 308.5 359.2" id="226,225" style="" /><path d="M 293.4 361.0 L 293.4 356.9 L 302.1 356.9" id="227,226" style="" /><path d="M 289.5 356.4 L 289.5 361.0 L 293.4 361.0" id="228,227" style="" /><path d="M 246.4 335.0 L 246.4 356.4 L 289.5 356.4" id="249,228" style="" /><path d="M 292.1 346.6 L 292.1 344.4 L 298.0 344.4" id="230,229" style="" /><path d="M 286.5 341.4 L 286.5 346.6 L 292.1 346.6" id="233,230" style="" /><path d="M 288.2 336.2 L 288.2 338.5 L 295.1 338.5" id="232,231" style="" /><path d="M 286.5 341.4 L 286.5 336.2 L 288.2 336.2" id="233,232" style="" /><path d="M 273.1 334.9 L 273.1 341.4 L 286.5 341.4" id="237,233" style="" /><path d="M 299.6 325.9 L 299.6 323.7 L 304.0 323.7" id="235,234" style="" /><path d="M 284.0 328.5 L 284.0 325.9 L 299.6 325.9" id="236,235" style="" /><path d="M 273.1 334.9 L 273.1 328.5 L 284.0 328.5" id="237,236" style="" /><path d="M 263.6 325.7 L 263.6 334.9 L 273.1 334.9" id="242,237" style="" /><path d="M 295.0 311.1 L 295.0 308.9 L 313.8 308.9" id="239,238" style="" /><path d="M 280.1 313.7 L 280.1 311.1 L 295.0 311.1" id="240,239" style="" /><path d="M 269.7 316.5 L 269.7 313.7 L 280.1 313.7" id="241,240" style="" /><path d="M 263.6 325.7 L 263.6 316.5 L 269.7 316.5" id="242,241" style="" /><path d="M 254.4 313.6 L 254.4 325.7 L 263.6 325.7" id="248,242" style="" /><path d="M 309.4 293.3 L 309.4 291.1 L 314.5 291.1" id="244,243" style="" /><path d="M 304.0 295.9 L 304.0 293.3 L 309.4 293.3" id="245,244" style="" /><path d="M 295.3 298.7 L 295.3 295.9 L 304.0 295.9" id="246,245" style="" /><path d="M 285.3 301.6 L 285.3 298.7 L 295.3 298.7" id="247,246" style="" /><path d="M 254.4 313.6 L 254.4 301.6 L 285.3 301.6" id="248,247" style="" /><path d="M 246.4 335.0 L 246.4 313.6 L 254.4 313.6" id="249,248" style="" /><path d="M 231.1 352.3 L 231.1 335.0 L 246.4 335.0" id="250,249" style="" /><path d="M 191.7 362.4 L 191.7 352.3 L 231.1 352.3" id="251,250" style="" /><path d="M 141.0 385.9 L 141.0 362.4 L 191.7 362.4" id="252,251" style="" /><path d="M 98.0 289.3 L 98.0 385.9 L 141.0 385.9" id="312,252" style="" /><path d="M 183.3 242.0 L 183.3 285.2 L 305.2 285.2" id="295,253" style="" /><path d="M 251.2 274.9 L 251.2 279.3 L 457.0 279.3" id="258,254" style="" /><path d="M 278.7 270.4 L 278.7 273.4 L 338.0 273.4" id="257,255" style="" /><path d="M 278.7 270.4 L 278.7 267.5 L 386.3 267.5" id="257,256" style="" /><path d="M 251.2 274.9 L 251.2 270.4 L 278.7 270.4" id="258,257" style="" /><path d="M 225.4 236.7 L 225.4 274.9 L 251.2 274.9" id="292,258" style="" /><path d="M 419.3 254.9 L 419.3 252.7 L 428.0 252.7" id="260,259" style="" /><path d="M 405.4 257.5 L 405.4 254.9 L 419.3 254.9" id="261,260" style="" /><path d="M 383.0 260.3 L 383.0 257.5 L 405.4 257.5" id="262,261" style="" /><path d="M 370.1 254.2 L 370.1 260.3 L 383.0 260.3" id="263,262" style="" /><path d="M 345.8 247.5 L 345.8 254.2 L 370.1 254.2" id="267,263" style="" /><path d="M 355.1 240.8 L 355.1 243.8 L 394.8 243.8" id="266,264" style="" /><path d="M 355.1 240.8 L 355.1 237.9 L 369.5 237.9" id="266,265" style="" /><path d="M 345.8 247.5 L 345.8 240.8 L 355.1 240.8" id="267,266" style="" /><path d="M 332.3 239.0 L 332.3 247.5 L 345.8 247.5" id="275,267" style="" /><path d="M 605.9 216.4 L 605.9 214.2 L 621.9 214.2" id="269,268" style="" /><path d="M 542.9 219.0 L 542.9 216.4 L 605.9 216.4" id="270,269" style="" /><path d="M 439.3 221.8 L 439.3 219.0 L 542.9 219.0" id="271,270" style="" /><path d="M 408.0 224.7 L 408.0 221.8 L 439.3 221.8" id="272,271" style="" /><path d="M 380.6 227.6 L 380.6 224.7 L 408.0 224.7" id="273,272" style="" /><path d="M 350.4 230.5 L 350.4 227.6 L 380.6 227.6" id="274,273" style="" /><path d="M 332.3 239.0 L 332.3 230.5 L 350.4 230.5" id="275,274" style="" /><path d="M 311.9 224.4 L 311.9 239.0 L 332.3 239.0" id="276,275" style="" /><path d="M 292.9 215.6 L 292.9 224.4 L 311.9 224.4" id="277,276" style="" /><path d="M 250.0 208.6 L 250.0 215.6 L 292.9 215.6" id="280,277" style="" /><path d="M 267.0 201.6 L 267.0 199.4 L 345.6 199.4" id="279,278" style="" /><path d="M 250.0 208.6 L 250.0 201.6 L 267.0 201.6" id="280,279" style="" /><path d="M 242.5 198.6 L 242.5 208.6 L 250.0 208.6" id="291,280" style="" /><path d="M 269.7 188.5 L 269.7 193.5 L 366.1 193.5" id="290,281" style="" /><path d="M 283.6 183.5 L 283.6 187.6 L 359.5 187.6" id="289,282" style="" /><path d="M 378.7 175.0 L 378.7 172.8 L 406.6 172.8" id="284,283" style="" /><path d="M 357.4 171.0 L 357.4 175.0 L 378.7 175.0" id="286,284" style="" /><path d="M 357.4 171.0 L 357.4 166.9 L 390.5 166.9" id="286,285" style="" /><path d="M 347.4 175.6 L 347.4 171.0 L 357.4 171.0" id="287,286" style="" /><path d="M 312.4 179.4 L 312.4 175.6 L 347.4 175.6" id="288,287" style="" /><path d="M 283.6 183.5 L 283.6 179.4 L 312.4 179.4" id="289,288" style="" /><path d="M 269.7 188.5 L 269.7 183.5 L 283.6 183.5" id="290,289" style="" /><path d="M 242.5 198.6 L 242.5 188.5 L 269.7 188.5" id="291,290" style="" /><path d="M 225.4 236.7 L 225.4 198.6 L 242.5 198.6" id="292,291" style="" /><path d="M 218.5 198.8 L 218.5 236.7 L 225.4 236.7" id="294,292" style="" /><path d="M 218.5 198.8 L 218.5 161.0 L 253.1 161.0" id="294,293" style="" /><path d="M 183.3 242.0 L 183.3 198.8 L 218.5 198.8" id="295,294" style="" /><path d="M 128.7 192.8 L 128.7 242.0 L 183.3 242.0" id="311,295" style="" /><path d="M 314.2 151.4 L 314.2 149.1 L 344.9 149.1" id="297,296" style="" /><path d="M 261.2 145.0 L 261.2 151.4 L 314.2 151.4" id="306,297" style="" /><path d="M 347.1 132.8 L 347.1 140.3 L 365.5 140.3" id="304,298" style="" /><path d="M 536.2 133.6 L 536.2 131.4 L 548.6 131.4" id="300,299" style="" /><path d="M 445.4 129.5 L 445.4 133.6 L 536.2 133.6" id="302,300" style="" /><path d="M 445.4 129.5 L 445.4 125.5 L 471.3 125.5" id="302,301" style="" /><path d="M 377.5 125.3 L 377.5 129.5 L 445.4 129.5" id="303,302" style="" /><path d="M 347.1 132.8 L 347.1 125.3 L 377.5 125.3" id="304,303" style="" /><path d="M 306.8 138.7 L 306.8 132.8 L 347.1 132.8" id="305,304" style="" /><path d="M 261.2 145.0 L 261.2 138.7 L 306.8 138.7" id="306,305" style="" /><path d="M 203.5 130.5 L 203.5 145.0 L 261.2 145.0" id="309,306" style="" /><path d="M 232.8 115.9 L 232.8 113.6 L 301.8 113.6" id="308,307" style="" /><path d="M 203.5 130.5 L 203.5 115.9 L 232.8 115.9" id="309,308" style="" /><path d="M 156.3 143.5 L 156.3 130.5 L 203.5 130.5" id="310,309" style="" /><path d="M 128.7 192.8 L 128.7 143.5 L 156.3 143.5" id="311,310" style="" /><path d="M 98.0 289.3 L 98.0 192.8 L 128.7 192.8" id="312,311" style="" /><path d="M 61.1 366.8 L 61.1 289.3 L 98.0 289.3" id="313,312" style="" /><path d="M 51.0 322.4 L 51.0 366.8 L 61.1 366.8" id="333,313" style="" /><path d="M 76.6 104.0 L 76.6 101.8 L 87.4 101.8" id="315,314" style="" /><path d="M 72.4 89.0 L 72.4 104.0 L 76.6 104.0" id="329,315" style="" /><path d="M 126.8 95.2 L 126.8 92.9 L 132.9 92.9" id="317,316" style="" /><path d="M 92.5 88.9 L 92.5 95.2 L 126.8 95.2" id="327,317" style="" /><path d="M 170.5 83.3 L 170.5 81.1 L 204.1 81.1" id="319,318" style="" /><path d="M 129.3 76.7 L 129.3 83.3 L 170.5 83.3" id="325,319" style="" /><path d="M 158.9 74.4 L 158.9 72.2 L 163.7 72.2" id="321,320" style="" /><path d="M 139.3 70.0 L 139.3 74.4 L 158.9 74.4" id="324,321" style="" /><path d="M 170.4 65.6 L 170.4 63.4 L 180.3 63.4" id="323,322" style="" /><path d="M 139.3 70.0 L 139.3 65.6 L 170.4 65.6" id="324,323" style="" /><path d="M 129.3 76.7 L 129.3 70.0 L 139.3 70.0" id="325,324" style="" /><path d="M 103.5 82.6 L 103.5 76.7 L 129.3 76.7" id="326,325" style="" /><path d="M 92.5 88.9 L 92.5 82.6 L 103.5 82.6" id="327,326" style="" /><path d="M 81.6 73.9 L 81.6 88.9 L 92.5 88.9" id="328,327" style="" /><path d="M 72.4 89.0 L 72.4 73.9 L 81.6 73.9" id="329,328" style="" /><path d="M 69.4 71.7 L 69.4 89.0 L 72.4 89.0" id="331,329" style="" /><path d="M 69.4 71.7 L 69.4 54.5 L 98.5 54.5" id="331,330" style="" /><path d="M 63.3 90.5 L 63.3 71.7 L 69.4 71.7" id="332,331" style="" /><path d="M 51.0 322.4 L 51.0 90.5 L 63.3 90.5" id="333,332" style="" /></g><g class="toytree-AdmixEdges" style="fill:rgb(0.0%,0.0%,0.0%);fill-opacity:0.0;stroke:rgb(90.6%,54.1%,76.5%);stroke-opacity:0.6;font-size:14px;stroke-linecap:round;stroke-width:5" /><g class="toytree-Nodes" style="fill:rgb(40.0%,76.1%,64.7%);fill-opacity:1.0;stroke:rgb(14.9%,14.9%,14.9%);stroke-opacity:1.0;stroke-width:1.5" /><g class="toytree-TipLabels" style="fill:rgb(14.5%,14.5%,14.5%);fill-opacity:1.0;font-family:Helvetica;font-size:5px;font-weight:300;vertical-align:baseline;white-space:pre;stroke:none"><g class="toytree-TipLabel" transform="translate(256.769,547)"><text x="15.0" y="1.2774999999999999" style="fill:rgb(14.5%,14.5%,14.5%);fill-opacity:1.0">329012</text></g><g class="toytree-TipLabel" transform="translate(247.607,544.042)"><text x="15.0" y="1.2774999999999999" style="fill:rgb(14.5%,14.5%,14.5%);fill-opacity:1.0">825874</text></g><g class="toytree-TipLabel" transform="translate(258.781,541.084)"><text x="15.0" y="1.2774999999999999" style="fill:rgb(14.5%,14.5%,14.5%);fill-opacity:1.0">990238</text></g><g class="toytree-TipLabel" transform="translate(261.028,538.126)"><text x="15.0" y="1.2774999999999999" style="fill:rgb(14.5%,14.5%,14.5%);fill-opacity:1.0">989611</text></g><g class="toytree-TipLabel" transform="translate(236.946,535.168)"><text x="15.0" y="1.2774999999999999" style="fill:rgb(14.5%,14.5%,14.5%);fill-opacity:1.0">909625</text></g><g class="toytree-TipLabel" transform="translate(264.026,532.21)"><text x="15.0" y="1.2774999999999999" style="fill:rgb(14.5%,14.5%,14.5%);fill-opacity:1.0">44600</text></g><g class="toytree-TipLabel" transform="translate(266.557,529.252)"><text x="15.0" y="1.2774999999999999" style="fill:rgb(14.5%,14.5%,14.5%);fill-opacity:1.0">825246</text></g><g class="toytree-TipLabel" transform="translate(167.076,526.294)"><text x="15.0" y="1.2774999999999999" style="fill:rgb(14.5%,14.5%,14.5%);fill-opacity:1.0">46737</text></g><g class="toytree-TipLabel" transform="translate(216.738,523.336)"><text x="15.0" y="1.2774999999999999" style="fill:rgb(14.5%,14.5%,14.5%);fill-opacity:1.0">549172</text></g><g class="toytree-TipLabel" transform="translate(262.702,520.378)"><text x="15.0" y="1.2774999999999999" style="fill:rgb(14.5%,14.5%,14.5%);fill-opacity:1.0">443987</text></g><g class="toytree-TipLabel" transform="translate(278.046,517.42)"><text x="15.0" y="1.2774999999999999" style="fill:rgb(14.5%,14.5%,14.5%);fill-opacity:1.0">46244</text></g><g class="toytree-TipLabel" transform="translate(206.824,514.461)"><text x="15.0" y="1.2774999999999999" style="fill:rgb(14.5%,14.5%,14.5%);fill-opacity:1.0">444698</text></g><g class="toytree-TipLabel" transform="translate(217.779,511.503)"><text x="15.0" y="1.2774999999999999" style="fill:rgb(14.5%,14.5%,14.5%);fill-opacity:1.0">646378</text></g><g class="toytree-TipLabel" transform="translate(180.83,508.545)"><text x="15.0" y="1.2774999999999999" style="fill:rgb(14.5%,14.5%,14.5%);fill-opacity:1.0">443535</text></g><g class="toytree-TipLabel" transform="translate(183.585,505.587)"><text x="15.0" y="1.2774999999999999" style="fill:rgb(14.5%,14.5%,14.5%);fill-opacity:1.0">46346</text></g><g class="toytree-TipLabel" transform="translate(218.234,502.629)"><text x="15.0" y="1.2774999999999999" style="fill:rgb(14.5%,14.5%,14.5%);fill-opacity:1.0">910030</text></g><g class="toytree-TipLabel" transform="translate(150.315,499.671)"><text x="15.0" y="1.2774999999999999" style="fill:rgb(14.5%,14.5%,14.5%);fill-opacity:1.0">203216</text></g><g class="toytree-TipLabel" transform="translate(140.991,496.713)"><text x="15.0" y="1.2774999999999999" style="fill:rgb(14.5%,14.5%,14.5%);fill-opacity:1.0">646529</text></g><g class="toytree-TipLabel" transform="translate(151.336,493.755)"><text x="15.0" y="1.2774999999999999" style="fill:rgb(14.5%,14.5%,14.5%);fill-opacity:1.0">738701</text></g><g class="toytree-TipLabel" transform="translate(167.312,490.797)"><text x="15.0" y="1.2774999999999999" style="fill:rgb(14.5%,14.5%,14.5%);fill-opacity:1.0">203177</text></g><g class="toytree-TipLabel" transform="translate(161.115,487.839)"><text x="15.0" y="1.2774999999999999" style="fill:rgb(14.5%,14.5%,14.5%);fill-opacity:1.0">45976</text></g><g class="toytree-TipLabel" transform="translate(167.734,484.881)"><text x="15.0" y="1.2774999999999999" style="fill:rgb(14.5%,14.5%,14.5%);fill-opacity:1.0">330425</text></g><g class="toytree-TipLabel" transform="translate(155.501,481.922)"><text x="15.0" y="1.2774999999999999" style="fill:rgb(14.5%,14.5%,14.5%);fill-opacity:1.0">44792</text></g><g class="toytree-TipLabel" transform="translate(127.957,478.964)"><text x="15.0" y="1.2774999999999999" style="fill:rgb(14.5%,14.5%,14.5%);fill-opacity:1.0">46219</text></g><g class="toytree-TipLabel" transform="translate(193.034,476.006)"><text x="15.0" y="1.2774999999999999" style="fill:rgb(14.5%,14.5%,14.5%);fill-opacity:1.0">330930</text></g><g class="toytree-TipLabel" transform="translate(254.355,473.048)"><text x="15.0" y="1.2774999999999999" style="fill:rgb(14.5%,14.5%,14.5%);fill-opacity:1.0">443111</text></g><g class="toytree-TipLabel" transform="translate(312.153,470.09)"><text x="15.0" y="1.2774999999999999" style="fill:rgb(14.5%,14.5%,14.5%);fill-opacity:1.0">329485</text></g><g class="toytree-TipLabel" transform="translate(301.675,467.132)"><text x="15.0" y="1.2774999999999999" style="fill:rgb(14.5%,14.5%,14.5%);fill-opacity:1.0">202107</text></g><g class="toytree-TipLabel" transform="translate(264.446,464.174)"><text x="15.0" y="1.2774999999999999" style="fill:rgb(14.5%,14.5%,14.5%);fill-opacity:1.0">44561</text></g><g class="toytree-TipLabel" transform="translate(223.338,461.216)"><text x="15.0" y="1.2774999999999999" style="fill:rgb(14.5%,14.5%,14.5%);fill-opacity:1.0">43584</text></g><g class="toytree-TipLabel" transform="translate(228.938,458.258)"><text x="15.0" y="1.2774999999999999" style="fill:rgb(14.5%,14.5%,14.5%);fill-opacity:1.0">825559</text></g><g class="toytree-TipLabel" transform="translate(232.951,455.3)"><text x="15.0" y="1.2774999999999999" style="fill:rgb(14.5%,14.5%,14.5%);fill-opacity:1.0">443014</text></g><g class="toytree-TipLabel" transform="translate(246.203,452.342)"><text x="15.0" y="1.2774999999999999" style="fill:rgb(14.5%,14.5%,14.5%);fill-opacity:1.0">43445</text></g><g class="toytree-TipLabel" transform="translate(235.445,449.383)"><text x="15.0" y="1.2774999999999999" style="fill:rgb(14.5%,14.5%,14.5%);fill-opacity:1.0">43351</text></g><g class="toytree-TipLabel" transform="translate(237.032,446.425)"><text x="15.0" y="1.2774999999999999" style="fill:rgb(14.5%,14.5%,14.5%);fill-opacity:1.0">43581</text></g><g class="toytree-TipLabel" transform="translate(254.093,443.467)"><text x="15.0" y="1.2774999999999999" style="fill:rgb(14.5%,14.5%,14.5%);fill-opacity:1.0">43612</text></g><g class="toytree-TipLabel" transform="translate(264.045,440.509)"><text x="15.0" y="1.2774999999999999" style="fill:rgb(14.5%,14.5%,14.5%);fill-opacity:1.0">43566</text></g><g class="toytree-TipLabel" transform="translate(212.941,437.551)"><text x="15.0" y="1.2774999999999999" style="fill:rgb(14.5%,14.5%,14.5%);fill-opacity:1.0">44319</text></g><g class="toytree-TipLabel" transform="translate(259.054,434.593)"><text x="15.0" y="1.2774999999999999" style="fill:rgb(14.5%,14.5%,14.5%);fill-opacity:1.0">201280</text></g><g class="toytree-TipLabel" transform="translate(186.015,431.635)"><text x="15.0" y="1.2774999999999999" style="fill:rgb(14.5%,14.5%,14.5%);fill-opacity:1.0">43597</text></g><g class="toytree-TipLabel" transform="translate(194.406,428.677)"><text x="15.0" y="1.2774999999999999" style="fill:rgb(14.5%,14.5%,14.5%);fill-opacity:1.0">43592</text></g><g class="toytree-TipLabel" transform="translate(195.85,425.719)"><text x="15.0" y="1.2774999999999999" style="fill:rgb(14.5%,14.5%,14.5%);fill-opacity:1.0">442991</text></g><g class="toytree-TipLabel" transform="translate(195.438,422.761)"><text x="15.0" y="1.2774999999999999" style="fill:rgb(14.5%,14.5%,14.5%);fill-opacity:1.0">201430</text></g><g class="toytree-TipLabel" transform="translate(190.668,419.803)"><text x="15.0" y="1.2774999999999999" style="fill:rgb(14.5%,14.5%,14.5%);fill-opacity:1.0">737389</text></g><g class="toytree-TipLabel" transform="translate(336.597,416.845)"><text x="15.0" y="1.2774999999999999" style="fill:rgb(14.5%,14.5%,14.5%);fill-opacity:1.0">48682</text></g><g class="toytree-TipLabel" transform="translate(461.468,413.886)"><text x="15.0" y="1.2774999999999999" style="fill:rgb(14.5%,14.5%,14.5%);fill-opacity:1.0">909694</text></g><g class="toytree-TipLabel" transform="translate(588.611,410.928)"><text x="15.0" y="1.2774999999999999" style="fill:rgb(14.5%,14.5%,14.5%);fill-opacity:1.0">2722</text></g><g class="toytree-TipLabel" transform="translate(614.627,407.97)"><text x="15.0" y="1.2774999999999999" style="fill:rgb(14.5%,14.5%,14.5%);fill-opacity:1.0">716757</text></g><g class="toytree-TipLabel" transform="translate(607.021,405.012)"><text x="15.0" y="1.2774999999999999" style="fill:rgb(14.5%,14.5%,14.5%);fill-opacity:1.0">300416</text></g><g class="toytree-TipLabel" transform="translate(574.469,402.054)"><text x="15.0" y="1.2774999999999999" style="fill:rgb(14.5%,14.5%,14.5%);fill-opacity:1.0">323760</text></g><g class="toytree-TipLabel" transform="translate(591.916,399.096)"><text x="15.0" y="1.2774999999999999" style="fill:rgb(14.5%,14.5%,14.5%);fill-opacity:1.0">905409</text></g><g class="toytree-TipLabel" transform="translate(620.931,396.138)"><text x="15.0" y="1.2774999999999999" style="fill:rgb(14.5%,14.5%,14.5%);fill-opacity:1.0">987261</text></g><g class="toytree-TipLabel" transform="translate(604.955,393.18)"><text x="15.0" y="1.2774999999999999" style="fill:rgb(14.5%,14.5%,14.5%);fill-opacity:1.0">1081</text></g><g class="toytree-TipLabel" transform="translate(606.812,390.222)"><text x="15.0" y="1.2774999999999999" style="fill:rgb(14.5%,14.5%,14.5%);fill-opacity:1.0">439079</text></g><g class="toytree-TipLabel" transform="translate(659.04,387.264)"><text x="15.0" y="1.2774999999999999" style="fill:rgb(14.5%,14.5%,14.5%);fill-opacity:1.0">641323</text></g><g class="toytree-TipLabel" transform="translate(655.768,384.306)"><text x="15.0" y="1.2774999999999999" style="fill:rgb(14.5%,14.5%,14.5%);fill-opacity:1.0">622558</text></g><g class="toytree-TipLabel" transform="translate(654.991,381.347)"><text x="15.0" y="1.2774999999999999" style="fill:rgb(14.5%,14.5%,14.5%);fill-opacity:1.0">641146</text></g><g class="toytree-TipLabel" transform="translate(577.796,378.389)"><text x="15.0" y="1.2774999999999999" style="fill:rgb(14.5%,14.5%,14.5%);fill-opacity:1.0">821783</text></g><g class="toytree-TipLabel" transform="translate(687.127,375.431)"><text x="15.0" y="1.2774999999999999" style="fill:rgb(14.5%,14.5%,14.5%);fill-opacity:1.0">544331</text></g><g class="toytree-TipLabel" transform="translate(296.505,372.473)"><text x="15.0" y="1.2774999999999999" style="fill:rgb(14.5%,14.5%,14.5%);fill-opacity:1.0">645492</text></g><g class="toytree-TipLabel" transform="translate(294.87,369.515)"><text x="15.0" y="1.2774999999999999" style="fill:rgb(14.5%,14.5%,14.5%);fill-opacity:1.0">738086</text></g><g class="toytree-TipLabel" transform="translate(376.882,366.557)"><text x="15.0" y="1.2774999999999999" style="fill:rgb(14.5%,14.5%,14.5%);fill-opacity:1.0">443179</text></g><g class="toytree-TipLabel" transform="translate(322.645,363.599)"><text x="15.0" y="1.2774999999999999" style="fill:rgb(14.5%,14.5%,14.5%);fill-opacity:1.0">43460</text></g><g class="toytree-TipLabel" transform="translate(348.542,360.641)"><text x="15.0" y="1.2774999999999999" style="fill:rgb(14.5%,14.5%,14.5%);fill-opacity:1.0">201760</text></g><g class="toytree-TipLabel" transform="translate(333.704,357.683)"><text x="15.0" y="1.2774999999999999" style="fill:rgb(14.5%,14.5%,14.5%);fill-opacity:1.0">43895</text></g><g class="toytree-TipLabel" transform="translate(325.133,354.725)"><text x="15.0" y="1.2774999999999999" style="fill:rgb(14.5%,14.5%,14.5%);fill-opacity:1.0">43675</text></g><g class="toytree-TipLabel" transform="translate(323.722,351.767)"><text x="15.0" y="1.2774999999999999" style="fill:rgb(14.5%,14.5%,14.5%);fill-opacity:1.0">908884</text></g><g class="toytree-TipLabel" transform="translate(330.029,348.808)"><text x="15.0" y="1.2774999999999999" style="fill:rgb(14.5%,14.5%,14.5%);fill-opacity:1.0">201802</text></g><g class="toytree-TipLabel" transform="translate(328.967,345.85)"><text x="15.0" y="1.2774999999999999" style="fill:rgb(14.5%,14.5%,14.5%);fill-opacity:1.0">989800</text></g><g class="toytree-TipLabel" transform="translate(330.391,342.892)"><text x="15.0" y="1.2774999999999999" style="fill:rgb(14.5%,14.5%,14.5%);fill-opacity:1.0">825259</text></g><g class="toytree-TipLabel" transform="translate(331.735,339.934)"><text x="15.0" y="1.2774999999999999" style="fill:rgb(14.5%,14.5%,14.5%);fill-opacity:1.0">201643</text></g><g class="toytree-TipLabel" transform="translate(321.462,336.976)"><text x="15.0" y="1.2774999999999999" style="fill:rgb(14.5%,14.5%,14.5%);fill-opacity:1.0">989712</text></g><g class="toytree-TipLabel" transform="translate(308.168,334.018)"><text x="15.0" y="1.2774999999999999" style="fill:rgb(14.5%,14.5%,14.5%);fill-opacity:1.0">547779</text></g><g class="toytree-TipLabel" transform="translate(310.722,331.06)"><text x="15.0" y="1.2774999999999999" style="fill:rgb(14.5%,14.5%,14.5%);fill-opacity:1.0">547982</text></g><g class="toytree-TipLabel" transform="translate(319.433,328.102)"><text x="15.0" y="1.2774999999999999" style="fill:rgb(14.5%,14.5%,14.5%);fill-opacity:1.0">740902</text></g><g class="toytree-TipLabel" transform="translate(306.635,325.144)"><text x="15.0" y="1.2774999999999999" style="fill:rgb(14.5%,14.5%,14.5%);fill-opacity:1.0">44124</text></g><g class="toytree-TipLabel" transform="translate(309.306,322.186)"><text x="15.0" y="1.2774999999999999" style="fill:rgb(14.5%,14.5%,14.5%);fill-opacity:1.0">736539</text></g><g class="toytree-TipLabel" transform="translate(309.863,319.228)"><text x="15.0" y="1.2774999999999999" style="fill:rgb(14.5%,14.5%,14.5%);fill-opacity:1.0">737744</text></g><g class="toytree-TipLabel" transform="translate(329.416,316.269)"><text x="15.0" y="1.2774999999999999" style="fill:rgb(14.5%,14.5%,14.5%);fill-opacity:1.0">44085</text></g><g class="toytree-TipLabel" transform="translate(350.126,313.311)"><text x="15.0" y="1.2774999999999999" style="fill:rgb(14.5%,14.5%,14.5%);fill-opacity:1.0">547670</text></g><g class="toytree-TipLabel" transform="translate(321.106,310.353)"><text x="15.0" y="1.2774999999999999" style="fill:rgb(14.5%,14.5%,14.5%);fill-opacity:1.0">44726</text></g><g class="toytree-TipLabel" transform="translate(364.323,307.395)"><text x="15.0" y="1.2774999999999999" style="fill:rgb(14.5%,14.5%,14.5%);fill-opacity:1.0">645476</text></g><g class="toytree-TipLabel" transform="translate(299.862,304.437)"><text x="15.0" y="1.2774999999999999" style="fill:rgb(14.5%,14.5%,14.5%);fill-opacity:1.0">443004</text></g><g class="toytree-TipLabel" transform="translate(315.239,301.479)"><text x="15.0" y="1.2774999999999999" style="fill:rgb(14.5%,14.5%,14.5%);fill-opacity:1.0">44123</text></g><g class="toytree-TipLabel" transform="translate(320.079,298.521)"><text x="15.0" y="1.2774999999999999" style="fill:rgb(14.5%,14.5%,14.5%);fill-opacity:1.0">201650</text></g><g class="toytree-TipLabel" transform="translate(330.192,295.563)"><text x="15.0" y="1.2774999999999999" style="fill:rgb(14.5%,14.5%,14.5%);fill-opacity:1.0">44125</text></g><g class="toytree-TipLabel" transform="translate(344.67,292.605)"><text x="15.0" y="1.2774999999999999" style="fill:rgb(14.5%,14.5%,14.5%);fill-opacity:1.0">328902</text></g><g class="toytree-TipLabel" transform="translate(333.545,289.647)"><text x="15.0" y="1.2774999999999999" style="fill:rgb(14.5%,14.5%,14.5%);fill-opacity:1.0">989593</text></g><g class="toytree-TipLabel" transform="translate(359.544,286.689)"><text x="15.0" y="1.2774999999999999" style="fill:rgb(14.5%,14.5%,14.5%);fill-opacity:1.0">328264</text></g><g class="toytree-TipLabel" transform="translate(368.17,283.731)"><text x="15.0" y="1.2774999999999999" style="fill:rgb(14.5%,14.5%,14.5%);fill-opacity:1.0">42935</text></g><g class="toytree-TipLabel" transform="translate(475.359,280.772)"><text x="15.0" y="1.2774999999999999" style="fill:rgb(14.5%,14.5%,14.5%);fill-opacity:1.0">41648</text></g><g class="toytree-TipLabel" transform="translate(488.846,277.814)"><text x="15.0" y="1.2774999999999999" style="fill:rgb(14.5%,14.5%,14.5%);fill-opacity:1.0">41376</text></g><g class="toytree-TipLabel" transform="translate(382.307,274.856)"><text x="15.0" y="1.2774999999999999" style="fill:rgb(14.5%,14.5%,14.5%);fill-opacity:1.0">644179</text></g><g class="toytree-TipLabel" transform="translate(372.254,271.898)"><text x="15.0" y="1.2774999999999999" style="fill:rgb(14.5%,14.5%,14.5%);fill-opacity:1.0">547188</text></g><g class="toytree-TipLabel" transform="translate(520.928,268.94)"><text x="15.0" y="1.2774999999999999" style="fill:rgb(14.5%,14.5%,14.5%);fill-opacity:1.0">40939</text></g><g class="toytree-TipLabel" transform="translate(467.347,265.982)"><text x="15.0" y="1.2774999999999999" style="fill:rgb(14.5%,14.5%,14.5%);fill-opacity:1.0">38790</text></g><g class="toytree-TipLabel" transform="translate(426.864,263.024)"><text x="15.0" y="1.2774999999999999" style="fill:rgb(14.5%,14.5%,14.5%);fill-opacity:1.0">42352</text></g><g class="toytree-TipLabel" transform="translate(428.346,260.066)"><text x="15.0" y="1.2774999999999999" style="fill:rgb(14.5%,14.5%,14.5%);fill-opacity:1.0">736578</text></g><g class="toytree-TipLabel" transform="translate(441.817,257.108)"><text x="15.0" y="1.2774999999999999" style="fill:rgb(14.5%,14.5%,14.5%);fill-opacity:1.0">200258</text></g><g class="toytree-TipLabel" transform="translate(446.851,254.15)"><text x="15.0" y="1.2774999999999999" style="fill:rgb(14.5%,14.5%,14.5%);fill-opacity:1.0">200257</text></g><g class="toytree-TipLabel" transform="translate(456.282,251.192)"><text x="15.0" y="1.2774999999999999" style="fill:rgb(14.5%,14.5%,14.5%);fill-opacity:1.0">420588</text></g><g class="toytree-TipLabel" transform="translate(491.773,248.233)"><text x="15.0" y="1.2774999999999999" style="fill:rgb(14.5%,14.5%,14.5%);fill-opacity:1.0">736637</text></g><g class="toytree-TipLabel" transform="translate(428.542,245.275)"><text x="15.0" y="1.2774999999999999" style="fill:rgb(14.5%,14.5%,14.5%);fill-opacity:1.0">327929</text></g><g class="toytree-TipLabel" transform="translate(448.345,242.317)"><text x="15.0" y="1.2774999999999999" style="fill:rgb(14.5%,14.5%,14.5%);fill-opacity:1.0">824309</text></g><g class="toytree-TipLabel" transform="translate(402.243,239.359)"><text x="15.0" y="1.2774999999999999" style="fill:rgb(14.5%,14.5%,14.5%);fill-opacity:1.0">200495</text></g><g class="toytree-TipLabel" transform="translate(423.537,236.401)"><text x="15.0" y="1.2774999999999999" style="fill:rgb(14.5%,14.5%,14.5%);fill-opacity:1.0">546893</text></g><g class="toytree-TipLabel" transform="translate(451.403,233.443)"><text x="15.0" y="1.2774999999999999" style="fill:rgb(14.5%,14.5%,14.5%);fill-opacity:1.0">42325</text></g><g class="toytree-TipLabel" transform="translate(450.09,230.485)"><text x="15.0" y="1.2774999999999999" style="fill:rgb(14.5%,14.5%,14.5%);fill-opacity:1.0">988959</text></g><g class="toytree-TipLabel" transform="translate(429.728,227.527)"><text x="15.0" y="1.2774999999999999" style="fill:rgb(14.5%,14.5%,14.5%);fill-opacity:1.0">41905</text></g><g class="toytree-TipLabel" transform="translate(472.818,224.569)"><text x="15.0" y="1.2774999999999999" style="fill:rgb(14.5%,14.5%,14.5%);fill-opacity:1.0">200243</text></g><g class="toytree-TipLabel" transform="translate(617.065,221.611)"><text x="15.0" y="1.2774999999999999" style="fill:rgb(14.5%,14.5%,14.5%);fill-opacity:1.0">302403</text></g><g class="toytree-TipLabel" transform="translate(641.089,218.653)"><text x="15.0" y="1.2774999999999999" style="fill:rgb(14.5%,14.5%,14.5%);fill-opacity:1.0">200140</text></g><g class="toytree-TipLabel" transform="translate(640.327,215.694)"><text x="15.0" y="1.2774999999999999" style="fill:rgb(14.5%,14.5%,14.5%);fill-opacity:1.0">200036</text></g><g class="toytree-TipLabel" transform="translate(660.151,212.736)"><text x="15.0" y="1.2774999999999999" style="fill:rgb(14.5%,14.5%,14.5%);fill-opacity:1.0">41731</text></g><g class="toytree-TipLabel" transform="translate(468.064,209.778)"><text x="15.0" y="1.2774999999999999" style="fill:rgb(14.5%,14.5%,14.5%);fill-opacity:1.0">825057</text></g><g class="toytree-TipLabel" transform="translate(409.145,206.82)"><text x="15.0" y="1.2774999999999999" style="fill:rgb(14.5%,14.5%,14.5%);fill-opacity:1.0">824105</text></g><g class="toytree-TipLabel" transform="translate(412.163,203.862)"><text x="15.0" y="1.2774999999999999" style="fill:rgb(14.5%,14.5%,14.5%);fill-opacity:1.0">644026</text></g><g class="toytree-TipLabel" transform="translate(511.637,200.904)"><text x="15.0" y="1.2774999999999999" style="fill:rgb(14.5%,14.5%,14.5%);fill-opacity:1.0">200431</text></g><g class="toytree-TipLabel" transform="translate(513.947,197.946)"><text x="15.0" y="1.2774999999999999" style="fill:rgb(14.5%,14.5%,14.5%);fill-opacity:1.0">644198</text></g><g class="toytree-TipLabel" transform="translate(438.96,194.988)"><text x="15.0" y="1.2774999999999999" style="fill:rgb(14.5%,14.5%,14.5%);fill-opacity:1.0">49043</text></g><g class="toytree-TipLabel" transform="translate(438.234,192.03)"><text x="15.0" y="1.2774999999999999" style="fill:rgb(14.5%,14.5%,14.5%);fill-opacity:1.0">909040</text></g><g class="toytree-TipLabel" transform="translate(408.914,189.072)"><text x="15.0" y="1.2774999999999999" style="fill:rgb(14.5%,14.5%,14.5%);fill-opacity:1.0">42241</text></g><g class="toytree-TipLabel" transform="translate(418.07,186.114)"><text x="15.0" y="1.2774999999999999" style="fill:rgb(14.5%,14.5%,14.5%);fill-opacity:1.0">989212</text></g><g class="toytree-TipLabel" transform="translate(404.517,183.155)"><text x="15.0" y="1.2774999999999999" style="fill:rgb(14.5%,14.5%,14.5%);fill-opacity:1.0">736898</text></g><g class="toytree-TipLabel" transform="translate(419.436,180.197)"><text x="15.0" y="1.2774999999999999" style="fill:rgb(14.5%,14.5%,14.5%);fill-opacity:1.0">988973</text></g><g class="toytree-TipLabel" transform="translate(430.98,177.239)"><text x="15.0" y="1.2774999999999999" style="fill:rgb(14.5%,14.5%,14.5%);fill-opacity:1.0">824559</text></g><g class="toytree-TipLabel" transform="translate(452.422,174.281)"><text x="15.0" y="1.2774999999999999" style="fill:rgb(14.5%,14.5%,14.5%);fill-opacity:1.0">42196</text></g><g class="toytree-TipLabel" transform="translate(456.277,171.323)"><text x="15.0" y="1.2774999999999999" style="fill:rgb(14.5%,14.5%,14.5%);fill-opacity:1.0">736700</text></g><g class="toytree-TipLabel" transform="translate(424.274,168.365)"><text x="15.0" y="1.2774999999999999" style="fill:rgb(14.5%,14.5%,14.5%);fill-opacity:1.0">42794</text></g><g class="toytree-TipLabel" transform="translate(428.149,165.407)"><text x="15.0" y="1.2774999999999999" style="fill:rgb(14.5%,14.5%,14.5%);fill-opacity:1.0">199714</text></g><g class="toytree-TipLabel" transform="translate(343.527,162.449)"><text x="15.0" y="1.2774999999999999" style="fill:rgb(14.5%,14.5%,14.5%);fill-opacity:1.0">201617</text></g><g class="toytree-TipLabel" transform="translate(393.799,159.491)"><text x="15.0" y="1.2774999999999999" style="fill:rgb(14.5%,14.5%,14.5%);fill-opacity:1.0">546956</text></g><g class="toytree-TipLabel" transform="translate(373.9,156.533)"><text x="15.0" y="1.2774999999999999" style="fill:rgb(14.5%,14.5%,14.5%);fill-opacity:1.0">990644</text></g><g class="toytree-TipLabel" transform="translate(510.716,153.575)"><text x="15.0" y="1.2774999999999999" style="fill:rgb(14.5%,14.5%,14.5%);fill-opacity:1.0">646121</text></g><g class="toytree-TipLabel" transform="translate(491.301,150.617)"><text x="15.0" y="1.2774999999999999" style="fill:rgb(14.5%,14.5%,14.5%);fill-opacity:1.0">329118</text></g><g class="toytree-TipLabel" transform="translate(515.685,147.658)"><text x="15.0" y="1.2774999999999999" style="fill:rgb(14.5%,14.5%,14.5%);fill-opacity:1.0">202188</text></g><g class="toytree-TipLabel" transform="translate(471.372,144.7)"><text x="15.0" y="1.2774999999999999" style="fill:rgb(14.5%,14.5%,14.5%);fill-opacity:1.0">889512</text></g><g class="toytree-TipLabel" transform="translate(451.257,141.742)"><text x="15.0" y="1.2774999999999999" style="fill:rgb(14.5%,14.5%,14.5%);fill-opacity:1.0">548624</text></g><g class="toytree-TipLabel" transform="translate(449.756,138.784)"><text x="15.0" y="1.2774999999999999" style="fill:rgb(14.5%,14.5%,14.5%);fill-opacity:1.0">889594</text></g><g class="toytree-TipLabel" transform="translate(569.069,135.826)"><text x="15.0" y="1.2774999999999999" style="fill:rgb(14.5%,14.5%,14.5%);fill-opacity:1.0">46681</text></g><g class="toytree-TipLabel" transform="translate(587.457,132.868)"><text x="15.0" y="1.2774999999999999" style="fill:rgb(14.5%,14.5%,14.5%);fill-opacity:1.0">46733</text></g><g class="toytree-TipLabel" transform="translate(578.468,129.91)"><text x="15.0" y="1.2774999999999999" style="fill:rgb(14.5%,14.5%,14.5%);fill-opacity:1.0">46971</text></g><g class="toytree-TipLabel" transform="translate(544.533,126.952)"><text x="15.0" y="1.2774999999999999" style="fill:rgb(14.5%,14.5%,14.5%);fill-opacity:1.0">46720</text></g><g class="toytree-TipLabel" transform="translate(579.654,123.994)"><text x="15.0" y="1.2774999999999999" style="fill:rgb(14.5%,14.5%,14.5%);fill-opacity:1.0">764</text></g><g class="toytree-TipLabel" transform="translate(484.262,121.036)"><text x="15.0" y="1.2774999999999999" style="fill:rgb(14.5%,14.5%,14.5%);fill-opacity:1.0">47124</text></g><g class="toytree-TipLabel" transform="translate(337.662,118.078)"><text x="15.0" y="1.2774999999999999" style="fill:rgb(14.5%,14.5%,14.5%);fill-opacity:1.0">739240</text></g><g class="toytree-TipLabel" transform="translate(408.161,115.119)"><text x="15.0" y="1.2774999999999999" style="fill:rgb(14.5%,14.5%,14.5%);fill-opacity:1.0">48270</text></g><g class="toytree-TipLabel" transform="translate(455.748,112.161)"><text x="15.0" y="1.2774999999999999" style="fill:rgb(14.5%,14.5%,14.5%);fill-opacity:1.0">910541</text></g><g class="toytree-TipLabel" transform="translate(181.307,109.203)"><text x="15.0" y="1.2774999999999999" style="fill:rgb(14.5%,14.5%,14.5%);fill-opacity:1.0">443128</text></g><g class="toytree-TipLabel" transform="translate(118.52,106.245)"><text x="15.0" y="1.2774999999999999" style="fill:rgb(14.5%,14.5%,14.5%);fill-opacity:1.0">203365</text></g><g class="toytree-TipLabel" transform="translate(114.608,103.287)"><text x="15.0" y="1.2774999999999999" style="fill:rgb(14.5%,14.5%,14.5%);fill-opacity:1.0">44534</text></g><g class="toytree-TipLabel" transform="translate(168.622,100.329)"><text x="15.0" y="1.2774999999999999" style="fill:rgb(14.5%,14.5%,14.5%);fill-opacity:1.0">44280</text></g><g class="toytree-TipLabel" transform="translate(148.191,97.3709)"><text x="15.0" y="1.2774999999999999" style="fill:rgb(14.5%,14.5%,14.5%);fill-opacity:1.0">990669</text></g><g class="toytree-TipLabel" transform="translate(151.772,94.4128)"><text x="15.0" y="1.2774999999999999" style="fill:rgb(14.5%,14.5%,14.5%);fill-opacity:1.0">548090</text></g><g class="toytree-TipLabel" transform="translate(153.989,91.4547)"><text x="15.0" y="1.2774999999999999" style="fill:rgb(14.5%,14.5%,14.5%);fill-opacity:1.0">990863</text></g><g class="toytree-TipLabel" transform="translate(163.282,88.4966)"><text x="15.0" y="1.2774999999999999" style="fill:rgb(14.5%,14.5%,14.5%);fill-opacity:1.0">329134</text></g><g class="toytree-TipLabel" transform="translate(312.176,85.5386)"><text x="15.0" y="1.2774999999999999" style="fill:rgb(14.5%,14.5%,14.5%);fill-opacity:1.0">45629</text></g><g class="toytree-TipLabel" transform="translate(261.674,82.5805)"><text x="15.0" y="1.2774999999999999" style="fill:rgb(14.5%,14.5%,14.5%);fill-opacity:1.0">330599</text></g><g class="toytree-TipLabel" transform="translate(247.952,79.6224)"><text x="15.0" y="1.2774999999999999" style="fill:rgb(14.5%,14.5%,14.5%);fill-opacity:1.0">738540</text></g><g class="toytree-TipLabel" transform="translate(180.285,76.6643)"><text x="15.0" y="1.2774999999999999" style="fill:rgb(14.5%,14.5%,14.5%);fill-opacity:1.0">444383</text></g><g class="toytree-TipLabel" transform="translate(190.013,73.7062)"><text x="15.0" y="1.2774999999999999" style="fill:rgb(14.5%,14.5%,14.5%);fill-opacity:1.0">46265</text></g><g class="toytree-TipLabel" transform="translate(191.137,70.7481)"><text x="15.0" y="1.2774999999999999" style="fill:rgb(14.5%,14.5%,14.5%);fill-opacity:1.0">203027</text></g><g class="toytree-TipLabel" transform="translate(197.819,67.79)"><text x="15.0" y="1.2774999999999999" style="fill:rgb(14.5%,14.5%,14.5%);fill-opacity:1.0">44564</text></g><g class="toytree-TipLabel" transform="translate(211.416,64.8319)"><text x="15.0" y="1.2774999999999999" style="fill:rgb(14.5%,14.5%,14.5%);fill-opacity:1.0">203162</text></g><g class="toytree-TipLabel" transform="translate(206.421,61.8738)"><text x="15.0" y="1.2774999999999999" style="fill:rgb(14.5%,14.5%,14.5%);fill-opacity:1.0">909618</text></g><g class="toytree-TipLabel" transform="translate(153.811,58.9158)"><text x="15.0" y="1.2774999999999999" style="fill:rgb(14.5%,14.5%,14.5%);fill-opacity:1.0">43802</text></g><g class="toytree-TipLabel" transform="translate(132.17,55.9577)"><text x="15.0" y="1.2774999999999999" style="fill:rgb(14.5%,14.5%,14.5%);fill-opacity:1.0">909903</text></g><g class="toytree-TipLabel" transform="translate(131.039,52.9996)"><text x="15.0" y="1.2774999999999999" style="fill:rgb(14.5%,14.5%,14.5%);fill-opacity:1.0">548382</text></g></g></g></g></g></svg>